<svg id="Layer_1" data-name="Layer 1" xmlns="http://www.w3.org/2000/svg" viewBox="0 0 40 40">
  <g id="Layer_1-2" data-name="Layer 1">
    <path d="M20,.77A19.48,19.48,0,0,0,.77,20.49a19.67,19.67,0,0,0,13.15,18.7c1,.18,1.32-.42,1.32-.95s0-1.71,0-3.35c-5.35,1.19-6.48-2.65-6.48-2.65a5.23,5.23,0,0,0-2.14-2.88c-1.74-1.23.13-1.2.13-1.2a4,4,0,0,1,2.94,2,4,4,0,0,0,5.6,1.64,4.24,4.24,0,0,1,1.22-2.64C12.21,28.7,7.73,27,7.73,19.45a7.73,7.73,0,0,1,2-5.29,7.23,7.23,0,0,1,.19-5.22s1.61-.53,5.29,2A17.9,17.9,0,0,1,20,10.3a18.08,18.08,0,0,1,4.82.66c3.67-2.55,5.28-2,5.28-2a7.26,7.26,0,0,1,.18,5.22,7.77,7.77,0,0,1,2,5.29c0,7.57-4.5,9.24-8.78,9.73a4.81,4.81,0,0,1,1.3,3.65c0,2.63,0,4.76,0,5.4s.34,1.14,1.32,1A19.65,19.65,0,0,0,39.23,20.49,19.48,19.48,0,0,0,20,.77Z" fill="#eee" fill-rule="evenodd"/>
  </g>
</svg>
