<svg id="Layer_1" data-name="Layer 1" xmlns="http://www.w3.org/2000/svg" viewBox="0 0 40 40">
  <g>
    <path d="M21.6,18V18l0,.06Z" fill="#eee" fill-rule="evenodd"/>
    <path d="M.73.73V39.27H39.27V.73Zm12,32H7V15.55h5.72ZM9.86,13.2h0A3,3,0,1,1,9.9,7.25a3,3,0,1,1,0,5.95ZM33.34,32.75H27.62V23.54c0-2.31-.83-3.89-2.89-3.89a3.1,3.1,0,0,0-2.93,2.09,3.77,3.77,0,0,0-.19,1.4v9.61H15.89s.08-15.59,0-17.2h5.72V18a5.7,5.7,0,0,1,5.16-2.83c3.76,0,6.58,2.45,6.58,7.74v9.86Z" fill="#eee" fill-rule="evenodd"/>
  </g>
</svg>
