<svg id="Layer_1" data-name="Layer 1" xmlns="http://www.w3.org/2000/svg" viewBox="0 0 40 40">
  <path d="M.77,3.52A2.75,2.75,0,0,1,3.52.77H9a2.75,2.75,0,0,1,2.74,2.75V9A2.74,2.74,0,0,1,9,11.75H3.52A2.75,2.75,0,0,1,.77,9Zm13.74,0A2.74,2.74,0,0,1,17.25.77h5.49a2.74,2.74,0,0,1,2.75,2.75V9a2.74,2.74,0,0,1-2.74,2.74H17.26A2.75,2.75,0,0,1,14.51,9V3.52Zm13.73,0A2.75,2.75,0,0,1,31,.77h5.5a2.75,2.75,0,0,1,2.75,2.75V9a2.75,2.75,0,0,1-2.75,2.74H31A2.74,2.74,0,0,1,28.25,9V3.52ZM.77,17.26a2.74,2.74,0,0,1,2.75-2.75H9a2.74,2.74,0,0,1,2.74,2.74v5.49A2.75,2.75,0,0,1,9,25.49H3.52A2.75,2.75,0,0,1,.77,22.74Zm13.74,0a2.74,2.74,0,0,1,2.74-2.75h5.49a2.75,2.75,0,0,1,2.75,2.75v5.49a2.74,2.74,0,0,1-2.75,2.74H17.25a2.73,2.73,0,0,1-2.74-2.74Zm13.73,0A2.75,2.75,0,0,1,31,14.51h5.5a2.75,2.75,0,0,1,2.75,2.75v5.49a2.74,2.74,0,0,1-2.75,2.74H31a2.74,2.74,0,0,1-2.74-2.74V17.26ZM.77,31a2.75,2.75,0,0,1,2.75-2.74H9A2.74,2.74,0,0,1,11.75,31v5.49A2.75,2.75,0,0,1,9,39.23H3.52A2.75,2.75,0,0,1,.77,36.48Zm13.74,0a2.74,2.74,0,0,1,2.74-2.74h5.49A2.75,2.75,0,0,1,25.49,31v5.49a2.75,2.75,0,0,1-2.75,2.75H17.25a2.74,2.74,0,0,1-2.74-2.75Zm13.73,0A2.74,2.74,0,0,1,31,28.25h5.5A2.75,2.75,0,0,1,39.23,31v5.49a2.75,2.75,0,0,1-2.75,2.75H31a2.75,2.75,0,0,1-2.74-2.75V31Z" fill="#eee"/>
</svg>
